# xmcd
#
# Track frame offsets: 
#        150
#        20504
#        45736
#        62470
#        87315
#        105388
#        123981
#        140180
#        161935
#        180120
#        200162
#        216849
#        231968
#
# Disc length: 3656 seconds
#
# Revision: 0
# Processed by: cddbd v1.5.2PL0 Copyright (c) Steve Scherf et al.
# Submitted via: ExactAudioCopy v0.99pb4
#
DISCID=b70e460d
DTITLE=Various Artist - 12 Bars To Heaven
DYEAR=2008
DGENRE=Blues Rock
TTITLE0=Mark Selby - I Should Know Better
TTITLE1=Walter Trout - All My Love
TTITLE2=Chuck Leavell - Tumbling Dice
TTITLE3=The Blues band - Tell Me What You want Me To Do
TTITLE4=Rudy Rotta - Hear What I'm Saying
TTITLE5=Blues Blend - When Daylight Comes
TTITLE6=Al DeLoner - If I Had Wings
TTITLE7=Anders Osborn - Spotlight
TTITLE8=Henrik Freischlader - Is It Right
TTITLE9=Steve Fister - True Grit
TTITLE10=Steve Lukather - Rock And Roll
TTITLE11=John Campbelljohn - Mississippi Queen
TTITLE12=Greg Koch - Stormy Monday
EXTD=
EXTT0=
EXTT1=
EXTT2=
EXTT3=
EXTT4=
EXTT5=
EXTT6=
EXTT7=
EXTT8=
EXTT9=
EXTT10=
EXTT11=
EXTT12=
PLAYORDER=
